<?xml version="1.0" standalone="no"?>
<svg version="1.1" id="color_x5F_1" xmlns="http://www.w3.org/2000/svg" xmlns:xlink="http://www.w3.org/1999/xlink" x="0px" y="0px" width="600px" height="600px" viewBox="0 0 600 600" enable-background="new 0 0 600 600" xml:space="preserve">
<polygon id="color_x5F_11" fill="#ef3100" points="538.72,314.161 537.208,314.262 537.208,314.262 431.479,376.348 
	240.988,488.124 240.988,488.124 7.156,353.166 7.156,353.166 7.156,367.68 240.988,505.057 538.72,332.303 "></polygon>
<path id="color_x5F_10" fill="#aab5ae" d="M133.647,253.687l1.108,0.504v15.32l-45.557,26.003l-42.835-24.492V255.4l42.835,23.787
	L133.647,253.687z M145.036,247.136l1.008,0.706v15.32l42.735-24.391v-16.731L145.036,247.136z"></path>
<path id="color_x5F_9" fill="#ffffff" d="M146.951,184.042c0.202,0.706,0.706,1.209,1.613,1.713
	c1.612,0.807,3.427,0.706,5.342-0.504l3.628,1.915c-1.008,0.706-2.117,0.706-3.528,0.101l-1.108,1.008
	c0.101,0.101,0.201,0.101,0.201,0.101c0.907,0.504,1.915,0.605,2.923,0.605c1.109-0.101,2.016-0.504,2.722-1.109l1.209,0.605
	l0.907-0.807l-1.209-0.604c0.605-0.807,0.907-1.512,0.706-2.217s-0.706-1.311-1.713-1.814c-0.806-0.403-1.512-0.604-2.318-0.504
	c-0.807,0-1.814,0.403-3.024,1.209l-3.427-1.814c0.403-0.303,0.907-0.403,1.411-0.403s1.108,0.202,1.713,0.605l1.008-1.008
	l-0.202-0.101c-1.209-0.605-2.217-0.907-3.125-0.706c-0.907,0.101-1.612,0.403-2.217,0.907l-0.504-0.303l-0.907,0.807l0.504,0.302
	C147.052,182.631,146.75,183.336,146.951,184.042z M156.627,183.84c0.403,0,0.806,0.101,1.209,0.303
	c1.008,0.504,1.109,1.209,0.504,2.116l-3.427-1.713C155.619,184.042,156.123,183.84,156.627,183.84z M148.866,182.631l3.225,1.713
	c-0.907,0.604-1.814,0.604-2.721,0.201C148.564,183.941,148.362,183.336,148.866,182.631z M246.128,195.632
	c0.101-2.318-0.302-4.536-0.706-6.249v-3.427c0.504,1.814,1.814,4.334,5.443,5.443c0.202,0,0.302,0.101,0.403,0.101l0,0l0,0v3.427
	c-0.504,0.101-0.806,0.202-0.806,0.202s-1.411-1.411-1.814-1.411c-0.504,0-1.613,1.209-1.613,1.209S246.632,195.229,246.128,195.632
	z M89.098,225.97c-0.202-0.706-0.706-1.311-1.713-1.814c-0.807-0.403-1.512-0.604-2.318-0.504c-0.806,0-1.814,0.403-3.024,1.209
	l-3.427-1.814c0.403-0.303,0.907-0.403,1.411-0.403s1.109,0.202,1.713,0.605l1.008-1.008l-0.202-0.101
	c-1.209-0.605-2.217-0.907-3.124-0.706c-0.907,0.101-1.613,0.403-2.218,0.907l-0.504-0.303l-0.907,0.807l0.504,0.302
	c-0.605,0.706-0.807,1.411-0.706,2.016c0.202,0.706,0.706,1.209,1.612,1.713c1.613,0.807,3.427,0.706,5.342-0.504l3.628,1.915
	c-1.008,0.706-2.116,0.706-3.527,0.101l-1.109,1.008c0.101,0.101,0.202,0.101,0.202,0.101c0.907,0.504,1.915,0.605,2.923,0.605
	c1.109-0.101,2.016-0.504,2.722-1.109l1.209,0.605l0.907-0.807l-1.209-0.604C88.997,227.381,89.299,226.676,89.098,225.97z
	 M78.213,225.769c-0.907-0.504-1.109-1.109-0.605-1.814l3.225,1.714C79.926,226.172,79.019,226.172,78.213,225.769z M87.082,227.482
	l-3.427-1.713c0.605-0.403,1.209-0.605,1.613-0.605c0.403,0,0.806,0.101,1.209,0.303C87.485,225.869,87.687,226.575,87.082,227.482z
	 M405.678,239.274l-6.148-1.512c0,0.403,0,0.705,0,0.907c0,3.931,1.21,7.458,3.729,10.785s5.846,5.543,10.079,6.753v5.342
	l5.141,1.209v-5.241c4.334,0.605,7.659,0,10.078-1.814c2.318-1.814,3.528-4.737,3.528-8.87c0-3.225-0.907-6.148-2.722-8.668
	c-1.814-2.621-5.442-5.241-10.885-7.861v-14.816c1.915,1.008,3.325,2.318,4.232,3.931c0.807,1.612,1.311,3.931,1.311,6.854
	l5.946,1.613v-0.807c0-5.04-1.209-8.97-3.527-11.591s-4.938-4.535-7.962-5.644v-2.217l-5.141-1.411v2.117
	c-4.031-0.807-7.156-0.202-9.475,1.612c-2.317,1.814-3.427,4.637-3.427,8.467c0,7.156,4.334,12.699,12.901,16.731v15.622
	C408.5,248.849,405.98,245.12,405.678,239.274z M418.377,237.359c2.923,1.31,4.737,2.721,5.745,4.032
	c0.907,1.411,1.411,2.923,1.411,4.636c0,4.132-2.318,6.047-7.055,5.846v-14.514H418.377z M407.189,219.116
	c0-3.931,2.016-5.745,6.148-5.342v14.01C409.205,225.769,407.189,222.846,407.189,219.116z M133.042,237.662l0.605,1.008v14.917
	l1.108,0.504v15.32l11.289-6.45v-15.32l-1.008-0.705v-15.119l-0.706-0.907v-16.832l0,0l44.448-25.802l-42.735-24.794l-44.75,26.206
	l-4.737,2.721l-6.854,4.032l-43.339,25.6l42.735,24.291l43.944-25.399V237.662z M141.206,169.83l36.486,21.166l-21.468,12.296
	c-6.551-15.018-16.227-19.855-23.182-21.267c-6.249-1.209-11.389-0.101-13.103,0.403L141.206,169.83z M119.335,182.731v0.101
	c0.101,0,6.047-2.016,13.506-0.504c6.854,1.411,16.429,6.148,22.98,21.065l0.101-0.101l-6.854,3.931
	c-0.101-0.403-1.713-6.652-6.753-12.296c-4.737-5.342-13.708-11.087-29.027-8.668L119.335,182.731z M92.021,239.98l-35.075-20.46
	l22.375-13.203c0,0.201,1.512,10.28,10.079,16.63c4.636,3.528,10.583,5.241,17.537,5.241c2.117,0,4.334-0.202,6.652-0.504
	L92.021,239.98z M113.792,227.482v-0.101c-9.979,1.512-18.142-0.101-24.291-4.737c-8.466-6.35-9.877-16.328-9.877-16.429h-0.302
	l5.443-3.225c0,0.806,0.302,7.761,6.35,13.405c5.342,4.939,13.304,7.458,23.887,7.458c1.713,0,3.527-0.101,5.342-0.202
	L113.792,227.482z M120.645,223.551v-0.101c-13.304,1.008-23.182-1.411-29.33-7.156c-6.249-5.846-6.249-13.204-6.249-13.304h-0.101
	l7.66-4.536l36.486,20.259L120.645,223.551z M104.116,191.702l8.869-5.241v0.101c15.421-2.52,24.391,3.225,29.128,8.567
	c5.14,5.745,6.753,12.196,6.753,12.296h0.101l-8.567,4.938L104.116,191.702z M458.593,345.506l-141.912,82.043L103.41,303.578
	l142.012-81.539v-4.737v-0.403c0.807,2.117,1.814,4.334,2.822,6.551c0,0.101,0.101,0.202,0.101,0.303
	c3.125,7.055,1.109,16.731,1.109,16.731c0.403,0.403,0.806,0.907,1.209,1.31l-5.241-3.023l-70.956,40.719l77.406,44.649
	l-0.101,4.436c0,0-0.504,1.41-1.008,2.922l-27.213-15.621l-42.533,24.592l71.258,41.223l42.634-24.794l-36.184-20.863
	c0.605-0.101,1.109,0,1.613,0.101c1.209,0.303,3.628,0,5.543-0.807c0.907-0.302,1.713-1.008,2.217-1.813l11.289,6.552
	c0,0.201,0.101,0.302,0.101,0.302c0.101,0.202,0.706,0.403,1.512,0.604l71.157,41.123l70.452-40.72l-145.439-84.26
	c0-6.35-0.504-11.591-0.504-11.591l-1.008-5.947l-1.512-9.071L448.11,331.194V182.228L256.005,71.359v83.252
	c-1.814,1.209-3.125,3.124-3.225,5.846c0,0-3.628-0.303-7.257,1.31V57.047l213.069,123.064V345.506z M289.165,214.984
	l112.179,63.195l-0.403,0.706l-111.876-63.094C289.064,215.589,289.165,215.287,289.165,214.984z M274.047,115.001v17.84
	l0.201-0.101l13.909,38.804l28.423-15.925l14.514,40.517l21.367-12.498l3.125,14.816l35.679-20.259l-1.915-3.125l10.886-1.411
	l-6.753,8.265l-1.714-2.822l-36.989,21.166l-3.125-14.816l-21.165,12.397l-14.514-40.618l-28.423,15.925l-13.506-37.695v70.754
	l-0.807-0.605v-72.568l0,0l0,0V114.9h0.807V115.001z M507.777,365.06l-3.931,0.907l-17.033,20.359l-113.59,65.312l0,0l0,0
	l85.066,49.085l113.69-65.514l19.352-21.972L507.777,365.06z M487.116,401.948l14.312,8.366l-14.211,8.164l-14.313-8.366
	L487.116,401.948z M448.715,445.994l9.979-5.847l15.018,8.77l-9.979,5.744L448.715,445.994z M459.097,457.383l-9.374,5.442
	l-14.917-8.668l9.273-5.442L459.097,457.383z M463.229,437.527l9.475-5.543l15.118,8.769l-9.575,5.543L463.229,437.527z
	 M477.238,429.363l9.676-5.645l15.22,8.77l-9.777,5.644L477.238,429.363z M491.551,420.998l14.11-8.265l15.219,8.869l-14.11,8.164
	L491.551,420.998z M468.269,412.834l14.312,8.265l-9.776,5.645l-14.313-8.265L468.269,412.834z M453.956,421.199l14.313,8.265
	l-9.575,5.544l-14.313-8.265L453.956,421.199z M439.846,429.363l14.312,8.265l-9.978,5.745l-14.313-8.265L439.846,429.363z
	 M425.332,437.729l14.312,8.266l-9.373,5.442l-14.313-8.265L425.332,437.729z M401.747,451.437l9.575-5.544l14.312,8.265
	l-9.676,5.544L401.747,451.437z M420.595,462.422l9.575-5.543l14.917,8.668l-9.575,5.543L420.595,462.422z M458.593,484.395
	l-18.445-10.684l9.575-5.544l18.444,10.684L458.593,484.395z M472.703,476.13l-18.444-10.684l9.272-5.443l18.444,10.685
	L472.703,476.13z M486.713,468.066l-18.546-10.784l9.979-5.846l18.545,10.784L486.713,468.066z M501.227,459.701l-18.546-10.784
	l9.575-5.544l18.646,10.784L501.227,459.701z M515.438,451.537l-18.646-10.784l9.676-5.645l18.646,10.885L515.438,451.537z
	 M529.75,443.272l-18.646-10.886l14.11-8.164l18.747,10.886L529.75,443.272z M563.01,429.666l-70.25-40.518l11.188-13.203
	l71.46,40.517L563.01,429.666z"></path>
<path id="color_x5F_8" fill="#bcccc2" d="M464.841,341.878l-6.35,3.628V180.111L245.422,57.047l6.148-3.83l213.27,122.963v95.75
	V341.878z M133.647,238.771l-0.605-1.008l-43.944,25.298l-42.735-24.492V255.4l42.835,23.787l44.448-25.5V238.771z M145.036,247.136
	l43.743-25.097v-16.428l-44.448,25.6l0.706,0.907V247.136L145.036,247.136z M591.332,413.237l-19.352,21.972l-113.69,65.514
	l-85.066-49.085l0,0v9.776l85.369,47.573l134.251-78.313v-16.429L591.332,413.237z M458.593,345.506l-141.912,82.043L103.41,303.578
	v8.566l213.069,122.964l142.113-82.043V345.506z"></path>
<path id="color_x5F_7" fill="#d0e7df" d="M144.331,231.211v-16.832l0,0l44.448-25.802l0,0l0,0v17.034L144.331,231.211z
	 M46.363,222.039v16.53l42.735,24.391l43.944-25.298V220.83l-43.944,25.399L46.363,222.039z M454.157,437.628l-14.312-8.265
	l-9.979,5.745l14.313,8.265L454.157,437.628z M468.269,429.464l-14.313-8.265l-9.575,5.544l14.313,8.265L468.269,429.464z
	 M259.734,328.574c0.706,0.705,3.125,1.108,4.637,0.705c1.512-0.403,3.125-0.101,3.931,1.512c0.403,0.807,0.202,1.814-0.302,2.722
	l11.288,6.552c-0.302-1.613-0.806-7.56-0.604-8.064c0.202-0.604,0.907-0.302,0.907-0.302l0,0c0.101,0.202,0.202,0.403,0.302,0.604
	c-3.931-6.652-10.684-38.904-10.785-41.727c0-1.008-0.504-2.318-1.008-3.628c-1.209,0.101-2.318,0.202-3.326,0.101l-7.156,39.912
	h0.302C257.82,326.961,259.13,327.868,259.734,328.574z M430.271,451.437l9.373-5.442l-14.312-8.266l-9.374,5.443L430.271,451.437z
	 M502.134,432.488l-15.22-8.77l-9.676,5.645l15.118,8.769L502.134,432.488z M473.711,449.018l-15.018-8.769l-9.979,5.846
	l15.018,8.769L473.711,449.018z M506.77,429.867l14.11-8.164l-15.219-8.869l-14.11,8.265L506.77,429.867z M501.428,410.314
	l-14.312-8.366l-14.212,8.164l14.313,8.366L501.428,410.314z M487.821,440.753l-15.118-8.769l-9.475,5.543l15.118,8.769
	L487.821,440.753z M482.681,421.199l-14.312-8.265l-9.676,5.645l14.312,8.265L482.681,421.199z M434.806,454.157l14.917,8.668
	l9.374-5.442l-15.019-8.668L434.806,454.157z M454.359,465.446l18.444,10.684l9.373-5.442l-18.545-10.685L454.359,465.446z
	 M468.167,457.383l18.546,10.784l9.978-5.745l-18.545-10.885L468.167,457.383z M482.681,448.917l18.546,10.784l9.575-5.544
	l-18.646-10.784L482.681,448.917z M525.113,424.122l-14.11,8.164l18.646,10.886l14.111-8.164L525.113,424.122z M496.792,440.651
	l18.646,10.785l9.776-5.645l-18.646-10.885L496.792,440.651z M277.171,257.114c0,1.31,0,2.721-0.101,4.132
	c-0.403,7.962,1.713,22.778,1.713,22.778c-0.504,0.202-1.108,0.403-1.612,0.605l0,0l7.357,46.564c0,0,0.302,0,1.209,0
	c0.907,0.101,3.427,0.604,5.543,0.604s4.435-1.512,6.652-0.807c2.218,0.807,1.613,3.73,0.403,5.342
	c-1.31,1.613-4.435,2.318-6.753,2.42c-2.318,0.101-3.225,0.201-5.241,1.41c-1.411,0.807-3.931,0.807-5.543,0.605l71.157,41.122
	l70.452-40.72L277.171,257.114z M252.478,282.21L252.478,282.21L252.478,282.21c-1.612-1.612-2.318-3.023-2.318-3.023
	s-5.342-13.103-3.931-21.367c1.31-8.366,5.14-15.32,5.14-15.32l0,0c-0.202-0.202-0.403-0.403-0.706-0.706l-5.241-3.023
	l-70.956,40.719l77.406,44.649L252.478,282.21z M254.796,336.738c-3.125,0.604-5.241-0.807-5.04-1.814
	c0.101-0.504,0.504-2.016,1.008-3.326l-27.213-15.623l-42.533,24.594l71.258,41.223l42.634-24.795l-36.184-20.863
	C257.719,336.133,256.61,336.334,254.796,336.738z M411.322,445.792l-9.575,5.544l14.313,8.265l9.676-5.544L411.322,445.792z
	 M430.17,456.778l-9.575,5.543l14.917,8.668l9.575-5.543L430.17,456.778z M440.147,473.711l18.344,10.684l9.575-5.544
	l-18.444-10.684L440.147,473.711z"></path>
<path id="color_x5F_6" fill="#fd6222" d="M115.001,223.954c1.713,0,3.527-0.101,5.342-0.201l-6.551,3.729v-0.101
	c-9.979,1.512-18.142-0.101-24.291-4.737c-8.466-6.35-9.877-16.328-9.877-16.429h-0.302l5.443-3.225
	c0,0.806,0.302,7.761,6.35,13.405C96.456,221.435,104.418,223.954,115.001,223.954z M84.965,202.99h0.101
	c0,0.101,0,7.458,6.249,13.304c6.148,5.745,16.025,8.164,29.33,7.156v0.101l8.466-4.838l-36.486-20.259L84.965,202.99z
	 M106.938,228.188c2.117,0,4.334-0.202,6.652-0.504L92.122,239.98l-35.075-20.46l22.375-13.204c0,0.202,1.512,10.281,10.079,16.63
	C94.037,226.373,99.882,228.188,106.938,228.188z M89.602,228.792l-1.209-0.604c0.604-0.806,0.907-1.512,0.706-2.217
	c-0.202-0.706-0.706-1.311-1.713-1.814c-0.807-0.403-1.512-0.604-2.318-0.504c-0.806,0-1.814,0.403-3.024,1.209l-3.427-1.814
	c0.403-0.303,0.907-0.403,1.411-0.403s1.109,0.202,1.713,0.605l1.008-1.008l-0.202-0.101c-1.209-0.605-2.217-0.907-3.124-0.706
	c-0.907,0.101-1.613,0.403-2.218,0.907l-0.504-0.303l-0.907,0.807l0.504,0.302c-0.605,0.706-0.807,1.411-0.706,2.016
	c0.202,0.706,0.706,1.209,1.612,1.713c1.613,0.807,3.427,0.706,5.342-0.504l3.628,1.915c-1.008,0.706-2.116,0.706-3.527,0.101
	l-1.109,1.008c0.101,0.101,0.202,0.101,0.202,0.101c0.907,0.504,1.915,0.605,2.923,0.605c1.109-0.101,2.016-0.504,2.722-1.109
	l1.209,0.605L89.602,228.792z M78.213,225.769c0.907,0.403,1.814,0.403,2.721-0.202l-3.226-1.713
	C77.104,224.66,77.205,225.265,78.213,225.769z M86.578,225.365c-0.403-0.201-0.806-0.302-1.209-0.302s-1.008,0.202-1.613,0.605
	l3.427,1.713C87.687,226.575,87.485,225.869,86.578,225.365z M132.941,182.328c-7.458-1.512-13.506,0.504-13.506,0.504v-0.101
	l-6.047,3.527c15.32-2.419,24.291,3.326,29.027,8.668c5.04,5.645,6.652,11.894,6.753,12.296l6.854-3.931l-0.101,0.101
	C149.471,188.477,139.795,183.639,132.941,182.328z M142.214,195.128c-4.737-5.342-13.707-11.087-29.128-8.567v-0.101l-8.87,5.241
	l36.284,20.561l8.567-4.938h-0.101C148.967,207.324,147.354,200.874,142.214,195.128z M413.237,227.784v-14.01
	c-4.032-0.403-6.148,1.411-6.148,5.342C407.189,222.846,409.205,225.769,413.237,227.784z M157.836,184.143
	c-0.403-0.202-0.806-0.303-1.209-0.303s-1.008,0.202-1.613,0.605l3.427,1.713C158.945,185.352,158.844,184.646,157.836,184.143z
	 M425.433,246.128c0-1.713-0.504-3.225-1.411-4.636s-2.822-2.721-5.745-4.032v14.514
	C423.114,252.175,425.433,250.26,425.433,246.128z M255.905,71.258L448.01,182.126v148.967L274.047,230.405l-1.613-9.374
	c7.257,2.621,14.816,4.032,14.816,4.032s2.822,0.605,4.032,0s2.318-3.528,1.713-5.443c-0.604-1.915-3.931-3.427-3.931-3.427
	l-0.202-0.101c0-0.101,0-0.202,0-0.302l111.876,63.094l0.403-0.706l-112.28-63.195c0-0.806,0-1.512-0.202-1.814
	c-0.604-0.907-1.411-2.016-3.931-2.621c-2.016-0.504-5.342-1.31-6.652-1.713l-2.116-1.209l-2.117-1.411v-70.754l13.506,37.695
	l28.422-15.925l14.514,40.518l21.166-12.397l3.124,14.816l37.091-21.065l1.714,2.822l6.753-8.265l-10.886,1.411l1.915,3.125
	l-35.68,20.259l-3.124-14.816l-21.367,12.498l-14.514-40.517l-28.423,15.925l-13.909-38.804l-0.202,0.101v-17.84h-0.806v18.142l0,0
	l0,0v72.568l-7.761-5.14c1.713-0.706,1.512-1.713,1.512-1.713c-2.419,0-5.644-2.822-5.644-2.822l-0.202,0.101v-3.225
	c0,0,4.132,1.311,6.551-2.318c2.318-3.729,1.613-11.389,1.613-11.389l0,0c1.512-1.814,2.822-4.333,3.427-7.761
	c2.117-11.691-3.427-17.839-8.164-18.545c-2.721-0.403-6.047,0.101-8.466,1.713V71.258H255.905z M400.437,218.31
	c0,7.156,4.334,12.7,12.901,16.731v15.623c-4.737-1.814-7.257-5.644-7.56-11.389l-6.147-1.512c0,0.403,0,0.705,0,0.907
	c0,3.931,1.209,7.458,3.729,10.785s5.846,5.543,10.079,6.753v5.342l5.141,1.209v-5.241c4.334,0.605,7.66,0,10.079-1.814
	c2.317-1.814,3.527-4.737,3.527-8.87c0-3.225-0.907-6.148-2.722-8.668c-1.813-2.621-5.442-5.241-10.885-7.861v-14.816
	c1.915,1.008,3.326,2.318,4.233,3.931c0.806,1.612,1.31,3.931,1.31,6.854l5.947,1.613v-0.807c0-5.04-1.21-8.97-3.528-11.591
	c-2.318-2.62-4.938-4.535-7.962-5.644v-2.217l-5.141-1.411v2.117c-4.031-0.807-7.156-0.202-9.474,1.612
	C401.546,211.759,400.437,214.581,400.437,218.31z M141.206,169.83l36.486,21.166l-21.468,12.296
	c-6.551-15.018-16.227-19.855-23.182-21.267c-6.249-1.209-11.389-0.101-13.103,0.403L141.206,169.83z M147.657,181.925
	c-0.605,0.706-0.807,1.411-0.706,2.016c0.202,0.706,0.706,1.209,1.613,1.713c1.612,0.806,3.427,0.706,5.342-0.504l3.628,1.915
	c-1.008,0.706-2.117,0.706-3.528,0.101l-1.108,1.008c0.101,0.101,0.201,0.101,0.201,0.101c0.907,0.504,1.915,0.604,2.923,0.604
	c1.109-0.101,2.016-0.504,2.722-1.108l1.209,0.604l0.907-0.806l-1.209-0.605c0.605-0.806,0.907-1.512,0.706-2.217
	s-0.706-1.31-1.713-1.814c-0.806-0.403-1.512-0.605-2.318-0.504c-0.807,0-1.814,0.403-3.024,1.209l-3.427-1.814
	c0.403-0.302,0.907-0.403,1.411-0.403s1.108,0.202,1.713,0.605l1.008-1.008l-0.202-0.101c-1.209-0.604-2.217-0.907-3.125-0.705
	c-0.907,0.101-1.612,0.403-2.217,0.907l-0.504-0.302l-0.907,0.806L147.657,181.925z M149.471,184.445
	c0.907,0.403,1.814,0.403,2.722-0.202l-3.226-1.713C148.362,183.336,148.564,183.941,149.471,184.445z M503.947,375.945
	l-11.288,13.304l70.25,40.518l12.498-13.305L503.947,375.945z"></path>
<path id="color_x5F_5" fill="#ffd2bb" d="M267.596,190.492c-2.318,3.729-6.551,2.318-6.551,2.318v3.225v1.109
	c-7.055,1.915-9.676-2.117-9.676-2.117v-0.202V191.5l0,0l0,0c5.543,1.411,7.458-0.706,7.458-0.706l1.108-2.621
	c0,0-1.411-2.016-2.016-4.535c-0.101-0.605-0.202-1.209-0.202-1.814c0-0.806,0.101-1.512,0.302-2.016
	c0.303-0.706,0.706-1.109,1.209-1.209c0.202-0.101,0.403-0.101,0.605-0.101c0.504,0,0.907,0.303,1.31,0.706
	c0.101,0.101,0.202,0.302,0.202,0.403c0.101,0.302,0.202,0.605,0.202,0.907c0,0,0,0,0,0.101c0.101,0.706,0,1.512-0.202,2.117
	c-0.101,0.604-0.302,1.008-0.302,1.008l0,0l0,0c0.504-0.101,4.737-0.604,7.962-4.536l0,0l0,0
	C269.209,179.103,269.915,186.864,267.596,190.492z M288.561,218.108c0.202-0.504,0.302-1.209,0.504-1.915c0-0.101,0-0.201,0-0.302
	c0-0.302,0.101-0.604,0.101-0.907c0-0.806,0-1.512-0.202-1.814c-0.604-0.907-1.411-2.016-3.931-2.621
	c-2.016-0.504-5.342-1.31-6.652-1.713c-0.303-0.101-0.504-0.101-0.504-0.101s0.504,0.101,1.31,0.907l0,0
	c0.806,0.706,1.613,2.419,1.512,3.225c0,0.807-1.008,3.326-0.302,4.334c0.706,1.008,2.016,1.411,3.931,1.915
	S288.057,219.52,288.561,218.108z M292.995,219.721c-0.604-1.915-3.931-3.427-3.931-3.427s0.202,5.946-1.915,8.87
	c0,0,2.822,0.604,4.032,0C292.391,224.559,293.701,221.636,292.995,219.721z M260.44,286.544c-0.604-0.101-1.209-0.302-1.713-0.504
	c0,0,0,0-0.101,0c-1.109-0.403-2.117-0.806-2.923-1.31c0,0,0,0-0.101,0c-0.403-0.202-0.806-0.504-1.209-0.806
	c0,0-0.101,0-0.101-0.101c-0.706-0.504-1.411-1.108-1.915-1.613l0,0l0,0l-0.605,42.03l-0.101,4.435c0,0,4.233,1.411,5.644-0.807
	l0.101-0.706l7.156-39.912C263.162,287.048,261.851,286.847,260.44,286.544C260.541,286.544,260.44,286.544,260.44,286.544z
	 M277.171,284.629L277.171,284.629c-1.613,0.605-3.226,1.109-4.737,1.411c-0.101,0-0.202,0-0.302,0.101
	c-0.605,0.101-1.209,0.302-1.814,0.403c-0.101,0-0.202,0-0.403,0.101c-0.706,0.101-1.311,0.202-1.915,0.302
	c0.504,1.31,0.907,2.621,1.008,3.628c0.101,2.822,6.854,35.074,10.785,41.727c0,0,2.318,2.117,4.838,0l-0.202-1.008L277.171,284.629
	z"></path>
<polygon id="color_x5F_4" fill="#ff6347" points="431.479,376.348 537.208,314.262 537.208,314.262 537.309,314.161 
	464.841,272.031 464.841,341.878 458.593,345.506 458.593,353.065 316.479,435.108 103.41,312.145 103.41,303.578 245.422,222.039 
	245.422,217.302 7.156,353.166 240.988,488.124 "></polygon>
<path id="color_x5F_3" fill="#d7b98c" d="M278.784,284.025c-0.504,0.202-1.108,0.403-1.612,0.604
	c-1.613,0.605-3.226,1.109-4.737,1.411c-0.101,0-0.202,0-0.302,0.101c-0.605,0.101-1.209,0.302-1.814,0.403
	c-0.101,0-0.202,0-0.403,0.101c-0.706,0.101-1.311,0.202-1.915,0.302c-1.209,0.101-2.318,0.202-3.326,0.101
	c-1.512,0-2.923-0.201-4.233-0.504h-0.101c-0.605-0.101-1.209-0.302-1.713-0.504c0,0,0,0-0.101,0
	c-1.108-0.403-2.116-0.806-2.923-1.31c0,0,0,0-0.101,0c-0.403-0.202-0.806-0.504-1.209-0.806c0,0-0.101,0-0.101-0.101
	c-0.706-0.504-1.411-1.108-1.915-1.613c-1.613-1.612-2.318-3.023-2.318-3.023s-5.342-13.103-3.931-21.367
	c1.31-8.366,5.14-15.32,5.14-15.32l0,0c13.103,12.901,23.182,4.939,24.996,3.326l0,0c0.101-0.101,0.101-0.101,0.101-0.101l0,0
	c0.101-0.101,0.101-0.101,0.101-0.101s0.605,5.342,0.504,11.591c0,1.31,0,2.721-0.101,4.132
	C276.566,269.209,278.784,284.025,278.784,284.025z M264.472,329.279c-1.512,0.403-4.032,0-4.636-0.705
	c-0.706-0.706-1.915-1.512-1.915-1.512h-0.302l-0.101,0.705c-1.411,2.318-5.644,0.807-5.644,0.807s-0.504,1.41-1.008,2.922
	c-0.504,1.412-1.008,2.822-1.008,3.326c-0.101,1.109,1.915,2.521,5.039,1.814c1.814-0.402,2.923-0.604,3.83-0.705
	c0.605-0.102,1.109,0,1.613,0.101c1.209,0.302,3.628,0,5.543-0.806c0.907-0.303,1.713-1.008,2.217-1.814
	c0.504-0.907,0.706-1.916,0.302-2.722C267.596,329.179,265.983,328.876,264.472,329.279z M297.934,331.194
	c-2.217-0.806-4.535,0.806-6.652,0.806s-4.636-0.504-5.543-0.604c-0.907-0.102-1.209,0-1.209,0l0.202,1.008
	c-2.52,2.116-4.838,0-4.838,0c-0.101-0.202-0.202-0.404-0.302-0.605l0,0c0,0-0.706-0.303-0.907,0.303
	c-0.202,0.604,0.302,6.551,0.604,8.063c0,0.202,0.101,0.303,0.101,0.303c0.101,0.201,0.706,0.403,1.512,0.605
	c1.613,0.302,4.132,0.201,5.543-0.605c2.016-1.209,2.923-1.209,5.241-1.411c2.318-0.101,5.442-0.806,6.753-2.419
	C299.647,334.924,300.151,331.9,297.934,331.194z"></path>
<path id="color_x5F_2" fill="#a37e5b" d="M248.245,223.45c0,0.101,0.101,0.202,0.101,0.303c3.125,7.055,1.109,16.731,1.109,16.731
	c0.403,0.403,0.806,0.907,1.209,1.31c0.202,0.202,0.403,0.403,0.706,0.706l0,0c13.103,12.901,23.182,4.939,24.996,3.326l0,0
	c0.101-0.101,0.101-0.101,0.101-0.101l0,0c0.101-0.101,0.101-0.101,0.101-0.101l-1.008-5.946l-1.512-9.071l-1.613-9.374
	c7.257,2.621,14.816,4.032,14.816,4.032c2.117-2.923,1.915-8.87,1.915-8.87l-0.202-0.101c-0.101,0.706-0.302,1.411-0.504,1.915
	c-0.504,1.411-2.217,1.612-4.233,1.108c-2.016-0.504-3.226-1.008-3.931-1.915c-0.706-1.008,0.201-3.527,0.302-4.334
	c0-0.806-0.807-2.52-1.512-3.225l0,0l-1.31-0.907l0,0l0,0l-1.613-1.008l-2.116-1.411l-0.807-0.604l-7.761-5.141
	c1.713-0.705,1.512-1.713,1.512-1.713c-2.419,0-5.644-2.822-5.644-2.822l-0.202,0.101v1.109c-7.055,1.915-9.676-2.117-9.676-2.117
	v-0.202c-0.504,0.101-0.806,0.202-0.806,0.202s-1.411-1.411-1.814-1.411c-0.504,0-1.612,1.209-1.612,1.209s-0.504,0.302-1.008,0.706
	l0,0c0,0.403,0,0.807-0.101,1.109c0,0.101,0,0.101,0,0.202c0,0.403-0.101,0.806-0.202,1.108l0,0
	c-0.101,0.403-0.202,0.807-0.302,1.209c0,0.101,0,0.202-0.101,0.202c-0.101,0.403-0.202,0.806-0.303,1.209l0,0
	c-0.101,0.403-0.302,0.806-0.504,1.209c0,0.101-0.101,0.202-0.101,0.302c-0.202,0.403-0.403,0.807-0.605,1.209l0,0
	c-0.202,0.403-0.504,0.807-0.706,1.209c-0.101,0.101-0.101,0.202-0.201,0.302c-0.303,0.403-0.605,0.807-0.907,1.21
	c0.302,2.318,1.411,6.249,3.225,10.784C246.229,219.016,247.237,221.233,248.245,223.45z"></path>
<path id="color_x5F_1_1_" fill="#020b23" d="M243.306,204.704c0.303-0.403,0.504-0.806,0.706-1.209l0,0
	c0.202-0.403,0.403-0.807,0.605-1.209c0-0.101,0.101-0.202,0.101-0.302c0.202-0.403,0.303-0.807,0.504-1.209l0,0
	c0.101-0.403,0.202-0.807,0.303-1.209c0-0.101,0-0.202,0.101-0.202c0.101-0.403,0.202-0.807,0.302-1.209l0,0
	c0.101-0.403,0.101-0.807,0.202-1.109c0-0.101,0-0.101,0-0.202c0-0.403,0.101-0.806,0.101-1.108l0,0
	c0.101-2.318-0.303-4.536-0.706-6.249c-0.504-2.217-1.109-3.628-1.008-3.931c0.302-0.907,0.806-1.311,0.806-1.311
	s0,0.807,0.302,1.915c0.504,1.814,1.814,4.334,5.443,5.443c0.201,0,0.302,0.101,0.403,0.101c5.543,1.411,7.458-0.706,7.458-0.706
	l1.109-2.621c0,0-1.411-2.016-2.016-4.536c-0.101-0.604-0.201-1.209-0.201-1.814c0-0.806,0.101-1.512,0.302-2.016
	c0.302-0.706,0.706-1.109,1.209-1.209c0.202-0.101,0.403-0.101,0.604-0.101c0.504,0,0.907,0.302,1.311,0.706
	c0.101,0.101,0.202,0.302,0.202,0.403c0.101,0.302,0.201,0.604,0.201,0.907c0,0,0,0,0,0.101c0.101,0.706,0,1.512-0.201,2.117
	c-0.101,0.604-0.303,1.008-0.303,1.008l0,0l0,0c0.504-0.101,4.737-0.605,7.962-4.536l0,0c1.512-1.814,2.822-4.334,3.427-7.761
	c2.116-11.691-3.427-17.84-8.164-18.545c-2.722-0.403-6.047,0.101-8.466,1.713c-1.814,1.21-3.125,3.125-3.226,5.846
	c0,0-3.628-0.303-7.257,1.31c-2.822,1.209-5.644,3.628-6.753,8.265c0,0-11.288,1.411-11.288,11.692
	c0,10.18,5.14,23.584-3.931,25.298c0,0,11.289,8.769,18.747-0.706c0.302-0.403,0.605-0.806,0.907-1.209
	C243.104,204.804,243.205,204.804,243.306,204.704z"></path>
</svg>